<?xml version="1.0" standalone="no"?><!DOCTYPE svg PUBLIC "-//W3C//DTD SVG 1.1//EN" "http://www.w3.org/Graphics/SVG/1.1/DTD/svg11.dtd"><svg t="1729790580747" class="icon" viewBox="0 0 1024 1024" version="1.1" xmlns="http://www.w3.org/2000/svg" p-id="17883" xmlns:xlink="http://www.w3.org/1999/xlink" width="200" height="200"><path d="M793.36 799.57H224.64c-71.52 0-129.71-55.62-129.71-123.98V267.06c0-68.36 58.19-123.98 129.71-123.98h568.72c71.52 0 129.71 55.62 129.71 123.98v408.53c0 68.36-58.19 123.98-129.71 123.98zM224.64 200.42c-38.44 0-69.71 29.89-69.71 66.63v408.53c0 36.74 31.27 66.63 69.71 66.63h568.72c38.44 0 69.71-29.89 69.71-66.63V267.06c0-36.74-31.27-66.63-69.71-66.63H224.64zM851.17 954.56H172.69c-24.85 0-45-20.15-45-45s20.15-45 45-45h678.48c24.85 0 45 20.15 45 45s-20.14 45-45 45z" fill="#07a3b8" p-id="17884"></path><path d="M712.33 583.51l19.56-60.19-74.54-31.3c0.1-2.26 0.16-4.52 0.16-6.8 0-2.48-0.06-4.94-0.19-7.39l74.39-31.24-19.56-60.19-78.75 18.5c-2.6-3.94-5.39-7.75-8.35-11.42l41.86-69.06-51.2-37.2-52.8 61.22a143.81 143.81 0 0 0-13.51-4.37l-6.72-80.4H479.4l-6.73 80.55c-4.59 1.26-9.09 2.74-13.49 4.42l-52.7-61.1-51.2 37.2 41.94 69.19c-2.95 3.68-5.72 7.5-8.31 11.45l-78.6-18.47-19.56 60.19 74.54 31.3c-0.1 2.26-0.16 4.52-0.16 6.8 0 2.48 0.06 4.94 0.19 7.39l-74.39 31.24 19.56 60.19 78.75-18.5c2.6 3.94 5.39 7.75 8.35 11.42L355.73 646l51.2 37.2 52.8-61.22c4.41 1.67 8.91 3.13 13.51 4.37l6.72 80.39h63.28l6.73-80.55c4.59-1.26 9.09-2.74 13.49-4.42l52.7 61.1 51.2-37.2-41.94-69.19c2.95-3.68 5.72-7.5 8.31-11.45l78.6 18.48z m-114.81-98.29c0 47.52-38.66 86.18-86.18 86.18s-86.18-38.66-86.18-86.18 38.66-86.18 86.18-86.18 86.18 38.66 86.18 86.18z" fill="#07a3b8" p-id="17885"></path></svg>