<?xml version="1.0" standalone="no"?><!DOCTYPE svg PUBLIC "-//W3C//DTD SVG 1.1//EN" "http://www.w3.org/Graphics/SVG/1.1/DTD/svg11.dtd"><svg t="1729790441770" class="icon" viewBox="0 0 1024 1024" version="1.1" xmlns="http://www.w3.org/2000/svg" p-id="13092" xmlns:xlink="http://www.w3.org/1999/xlink" width="200" height="200"><path d="M0 0h1024v1024H0V0z" fill="#202425" opacity=".01" p-id="13093"></path><path d="M473.9072 987.818667a17.066667 17.066667 0 0 1-30.173867-10.9568V426.666667a17.066667 17.066667 0 0 1 17.066667-17.066667h458.513067a17.066667 17.066667 0 0 1 13.1072 27.989333L473.9072 987.818667z" fill="#FFAA44" p-id="13094"></path><path d="M550.0928 36.181333a17.066667 17.066667 0 0 1 30.173867 10.9568V597.333333a17.066667 17.066667 0 0 1-17.066667 17.066667H104.721067a17.066667 17.066667 0 0 1-13.141334-27.989333L550.0928 36.181333z" fill="#11AA66" p-id="13095"></path></svg>